<svg width="20px" height="18px" viewBox="0 0 20 18" version="1.1" xmlns="http://www.w3.org/2000/svg" 
class="styles-hamburger-2QFkx6GW" fill="white">
<desc>Created with Sketch.</desc><g id="backup" stroke="none" stroke-width="1" fill="none" fill-rule="evenodd">
<g id="Premium-design-option-Copy" transform="translate(-35.000000, -27.000000)" fill="#FFF" stroke="#FFF">
<g id="menu" transform="translate(1.000000, 0.000000)"><g id="Group-7" transform="translate(35.000000, 27.000000)">
<path d="M0.211718919,2.17835678 C0.141145593,2.07781408 0.0882163926,1.97368212 0.0529297297,1.8659578 C0.0176430668,1.75823348 0,1.63255698 0,1.48892455 C0,1.35965536 0.0176430668,1.23756963 0.0529297297,1.12266368 C0.0882163926,1.00775774 0.141145593,0.907216543 0.211718919,0.821037084 C0.282292245,0.734857625 0.364626557,0.670224001 0.458724324,0.627134271 C0.552822092,0.584044542 0.652799471,0.5625 0.758659459,0.5625 L16.8669405,0.5625 C16.9728005,0.5625 17.0727779,0.584044542 17.1668757,0.627134271 C17.2609734,0.670224001 17.3433078,0.734857625 17.4138811,0.821037084 C17.4844544,0.907216543 17.5373836,1.00775774 17.5726703,1.12266368 C17.6079569,1.23756963 17.6256,1.35965536 17.6256,1.48892455 C17.6256,1.63255698 17.6079569,1.75823348 17.5726703,1.8659578 C17.5373836,1.97368212 17.4844544,2.07781408 17.4138811,2.17835678 C17.3433078,2.26453624 17.2609734,2.32916986 17.1668757,2.37225959 C17.0727779,2.41534932 16.9728005,2.43689386 16.8669405,2.43689386 L0.758659459,2.43689386 C0.652799471,2.43689386 0.552822092,2.41534932 0.458724324,2.37225959 C0.364626557,2.32916986 0.282292245,2.26453624 0.211718919,2.17835678 Z M17.4138811,8.60808254 C17.4844544,8.694262 17.5373836,8.79480319 17.5726703,8.90970914 C17.6079569,9.02461508 17.6256,9.14670082 17.6256,9.27597001 C17.6256,9.4052392 17.6079569,9.52732493 17.5726703,9.64223088 C17.5373836,9.75713682 17.4844544,9.85767802 17.4138811,9.94385748 C17.3433078,10.0300369 17.2609734,10.0946706 17.1668757,10.1377603 C17.0727779,10.18085 16.9728005,10.2023946 16.8669405,10.2023946 L0.758659459,10.2023946 C0.652799471,10.2023946 0.552822092,10.18085 0.458724324,10.1377603 C0.364626557,10.0946706 0.282292245,10.0300369 0.211718919,9.94385748 C0.141145593,9.85767802 0.0882163926,9.75713682 0.0529297297,9.64223088 C0.0176430668,9.52732493 0,9.4052392 0,9.27597001 C0,9.14670082 0.0176430668,9.02461508 0.0529297297,8.90970914 C0.0882163926,8.79480319 0.141145593,8.694262 0.211718919,8.60808254 C0.282292245,8.52190308 0.364626557,8.45726946 0.458724324,8.41417973 C0.552822092,8.37109 0.652799471,8.34954545 0.758659459,8.34954545 L16.8669405,8.34954545 C16.9728005,8.34954545 17.0727779,8.37109 17.1668757,8.41417973 C17.2609734,8.45726946 17.3433078,8.52190308 17.4138811,8.60808254 Z M17.4138811,15.8183098 C17.4844544,15.9044893 17.5373836,16.0050305 17.5726703,16.1199364 C17.6079569,16.2348424 17.6256,16.3569281 17.6256,16.4861973 C17.6256,16.6298297 17.6079569,16.7555062 17.5726703,16.8632305 C17.5373836,16.9709549 17.4844544,17.0750868 17.4138811,17.1756295 C17.3433078,17.261809 17.2609734,17.3264426 17.1668757,17.3695323 C17.0727779,17.412622 16.9728005,17.4341666 16.8669405,17.4341666 L0.758659459,17.4341666 C0.652799471,17.4341666 0.552822092,17.412622 0.458724324,17.3695323 C0.364626557,17.3264426 0.282292245,17.261809 0.211718919,17.1756295 C0.141145593,17.0750868 0.0882163926,16.9709549 0.0529297297,16.8632305 C0.0176430668,16.7555062 7.99360578e-14,16.6298297 7.99360578e-14,16.4861973 C7.99360578e-14,16.3569281 0.0176430668,16.2348424 0.0529297297,16.1199364 C0.0882163926,16.0050305 0.141145593,15.9044893 0.211718919,15.8183098 C0.282292245,15.7321304 0.364626557,15.6674967 0.458724324,15.624407 C0.552822092,15.5813173 0.652799471,15.5597727 0.758659459,15.5597727 L16.8669405,15.5597727 C16.9728005,15.5597727 17.0727779,15.5813173 17.1668757,15.624407 C17.2609734,15.6674967 17.3433078,15.7321304 17.4138811,15.8183098 Z" id="menu---simple-line-icons">
</path>
</g>
</g>
</g>
</g>
</svg>