<svg xmlns="http://www.w3.org/2000/svg" width="17" height="17" viewBox="0 0 17 17"><path fill="#FFF" fill-rule="evenodd" d="M16.81 15.824a.71.71 0 0 1 .19.493.71.71 0 0 1-.19.493.71.71 0 0 1-.493.19.644.644 0 0 1-.474-.19l-3.909-3.908c-1.353 1.113-2.903 1.67-4.648 1.67-2.011 0-3.729-.712-5.152-2.135C.711 11.014 0 9.297 0 7.286c0-2.011.711-3.729 2.134-5.152S5.274 0 7.286 0c2.01 0 3.728.711 5.15 2.134 1.424 1.423 2.135 3.14 2.135 5.152 0 1.745-.556 3.295-1.67 4.648l3.91 3.89zM9.581 12.75a5.978 5.978 0 0 0 1.888-1.28c.55-.55.977-1.18 1.281-1.889a5.855 5.855 0 0 0 .455-2.295c0-.81-.151-1.575-.455-2.296a5.978 5.978 0 0 0-1.28-1.888 5.978 5.978 0 0 0-1.889-1.28 5.855 5.855 0 0 0-2.295-.456c-.81 0-1.575.152-2.296.455a5.978 5.978 0 0 0-1.888 1.281A5.72 5.72 0 0 0 1.84 4.99a5.653 5.653 0 0 0-.474 2.296c0 .81.158 1.574.474 2.295a5.72 5.72 0 0 0 1.262 1.888c.55.55 1.18.977 1.888 1.281a5.855 5.855 0 0 0 2.296.455c.81 0 1.574-.151 2.295-.455z"></path></svg>